PathFileType	4	(X/Y/Z)	E:\Qualisys_Data\Carbon_Farble_Plate\Data\Amateur_Runner\S14\T1\S14T1V24_c3d.trc
DataRate	CameraRate	NumFrames	NumMarkers	Units	OrigDataRate	OrigDataStartFrame	OrigNumFrames
200.000000	200.000000	5	39	mm	200.000000	235	314
Frame#	Time	LSHO			RSHO			LICST			RICST			LASIS			LHEEL			RASIS			LTROC			RTROC			SACR			LTH1			LSK4			LTH2			LTH3			RHM5			LSK2			LTH4			RTH1			LTOE			RTH2			RTH3			RTH4			LLEP			RLEP			LSK1			LSK3			RSK1			LHM5			RSK2			LFT1			RSK3			RSK4			LLME			RLME			RTOE			RHEEL			RFT1			RFT2			LFT2			
		X1	Y1	Z1	X2	Y2	Z2	X3	Y3	Z3	X4	Y4	Z4	X5	Y5	Z5	X6	Y6	Z6	X7	Y7	Z7	X8	Y8	Z8	X9	Y9	Z9	X10	Y10	Z10	X11	Y11	Z11	X12	Y12	Z12	X13	Y13	Z13	X14	Y14	Z14	X15	Y15	Z15	X16	Y16	Z16	X17	Y17	Z17	X18	Y18	Z18	X19	Y19	Z19	X20	Y20	Z20	X21	Y21	Z21	X22	Y22	Z22	X23	Y23	Z23	X24	Y24	Z24	X25	Y25	Z25	X26	Y26	Z26	X27	Y27	Z27	X28	Y28	Z28	X29	Y29	Z29	X30	Y30	Z30	X31	Y31	Z31	X32	Y32	Z32	X33	Y33	Z33	X34	Y34	Z34	X35	Y35	Z35	X36	Y36	Z36	X37	Y37	Z37	X38	Y38	Z38	X39	Y39	Z39	

236	1.175	1874.226684570312	1418.421997070312	-562.159423828125	1991.103393554688	1418.953247070312	-295.3511352539062	1917.150634765625	970.8545532226562	-531.994873046875	1959.378784179688	970.1455688476562	-259.7243041992188	1963.404174804688	923.4948120117188	-503.3248291015625	2114.8623046875	57.53362655639648	-416.3727722167969	1981.567626953125	925.6018676757812	-275.811767578125	1833.8291015625	844.142578125	-551.5033569335938	1826.3349609375	884.8256225585938	-222.0868530273438	1800.487060546875	968.8480834960938	-390.5097351074219	2001.640502929688	641.4729614257812	-556.290283203125	2056.51611328125	274.1091003417969	-499.0073852539062	1936.879028320312	614.2794799804688	-522.0056762695312	2054.354248046875	561.5438842773438	-525.9954223632812	1280.9580078125	361.1827697753906	-245.5523834228516	2033.746459960938	370.0468444824219	-514.5250854492188	1984.034423828125	530.50390625	-503.0055236816406	1886.167724609375	622.4547729492188	-222.6515502929688	2347.922119140625	160.5440521240234	-472.7532043457031	1814.33740234375	650.2413330078125	-208.7223815917969	1853.25439453125	528.0498046875	-239.0336761474609	1775.675170898438	556.890625	-223.7757263183594	2059.9599609375	491.3196716308594	-515.4315185546875	1765.423461914062	485.9800415039062	-227.3216857910156	2113.381103515625	389.2771911621094	-516.5518188476562	2135.904296875	290.5805358886719	-504.8837890625	1656.038696289062	435.9642639160156	-227.2720184326172	2290.6162109375	108.7530975341797	-522.4744873046875	1643.778686523438	521.42236328125	-224.5150604248047	2139.915283203125	45.06238174438477	-391.7449340820312	1553.201416015625	429.8353576660156	-245.4469146728516	1549.948364257812	509.5596313476562	-243.4692077636719	2150.239990234375	107.0946273803711	-482.4264526367188	1384.408935546875	468.2241821289062	-271.6115112304688	1274.361938476562	283.6893005371094	-299.0565185546875	1381.018310546875	518.6016845703125	-339.294189453125	1354.610229492188	509.1331787109375	-366.7889099121094	1360.096069335938	528.5672607421875	-308.0307312011719	2129.271240234375	31.60899543762207	-444.291259765625
237	1.18	1895.642211914062	1412.27978515625	-564.3641357421875	2010.60009765625	1414.0205078125	-296.0351257324219	1936.339965820312	966.2885131835938	-532.297119140625	1980.349731445312	965.3997192382812	-260.335693359375	1983.514770507812	918.9447631835938	-504.7051086425781	2122.419677734375	59.7437744140625	-417.9996337890625	2002.588989257812	921.273193359375	-276.7332153320312	1852.856201171875	839.583740234375	-550.807861328125	1848.423461914062	879.0087890625	-221.0794982910156	1820.850219726562	964.06591796875	-390.0641479492188	2023.164306640625	638.6138305664062	-554.8662109375	2071.39111328125	269.8346862792969	-498.86376953125	1957.804565429688	610.4961547851562	-522.8912963867188	2075.403564453125	558.4029541015625	-524.4598999023438	1308.227905273438	366.173828125	-246.0583038330078	2051.15283203125	365.875732421875	-514.4142456054688	2004.584594726562	526.7337646484375	-504.1197814941406	1911.184448242188	616.9566040039062	-222.8634185791016	2359.202392578125	147.9705657958984	-470.1043701171875	1839.01025390625	643.6848754882812	-208.4081726074219	1880.128295898438	522.0493774414062	-238.7783050537109	1801.952758789062	549.3081665039062	-223.0260772705078	2081.43798828125	487.9841918945312	-515.2940673828125	1793.667846679688	478.9622192382812	-225.8502197265625	2131.376708984375	383.345703125	-515.879150390625	2150.927734375	284.0753784179688	-503.9085998535156	1684.021240234375	431.9456176757812	-226.7781066894531	2300.866943359375	98.23081207275392	-520.392822265625	1673.629272460938	517.517822265625	-224.2100524902344	2145.8701171875	43.63706207275391	-390.7625122070312	1580.812133789062	428.2722473144531	-244.9267578125	1579.620483398438	507.8489990234375	-243.5671234130859	2160.593505859375	101.2569427490234	-481.3127746582031	1413.561767578125	471.4022216796875	-271.7942810058594	1300.608276367188	288.5545959472656	-299.3059387207031	1410.8671875	521.4219970703125	-340.2765197753906	1384.274169921875	512.2879638671875	-367.761962890625	1390.052612304688	532.0128173828125	-308.871337890625	2133.348388671875	32.88198471069336	-443.7126770019531
238	1.185	1917.197143554688	1406.10595703125	-566.4544067382812	2029.848022460938	1409.376831054688	-296.4948120117188	1956.011352539062	961.8627319335938	-533.3153076171875	2001.304321289062	960.5076904296876	-261.0220031738281	2005.359497070312	915.660888671875	-507.0982666015625	2129.020263671875	60.67901229858398	-417.3768920898438	2023.475463867188	916.5291137695312	-278.1572265625	1871.791259765625	834.56005859375	-549.606201171875	1870.533813476562	873.4451904296875	-219.8657531738281	1841.305053710938	959.06982421875	-389.310302734375	2044.596069335938	635.561279296875	-553.2979125976562	2085.641357421875	265.5893249511719	-499.0453186035156	1978.644287109375	606.3538818359375	-523.9246215820312	2096.85107421875	555.4208374023438	-522.9263916015625	1336.157348632812	370.4610900878906	-246.4126739501953	2068.104248046875	361.642578125	-515.0477905273438	2025.9599609375	522.8569946289062	-505.085205078125	1936.6669921875	611.4779663085938	-222.6984252929688	2371.251220703125	132.5593566894531	-467.6931762695312	1863.916625976562	636.7467651367188	-208.3113861083984	1907.707641601562	516.00341796875	-238.2368011474609	1828.905883789062	541.7201538085938	-222.0474853515625	2102.37890625	484.0901184082031	-514.8167724609375	1821.933715820312	471.6011352539062	-225.1161651611328	2148.652099609375	377.1885681152344	-515.593017578125	2165.519775390625	277.6334838867188	-503.2683410644531	1712.228515625	427.4849853515625	-226.1658325195312	2309.13232421875	85.62530517578125	-516.98583984375	1704.136962890625	513.2207641601562	-223.6758422851562	2150.962646484375	41.91378402709961	-390.4778137207031	1609.387573242188	425.9162292480469	-245.3160247802734	1609.882202148438	506.0133666992188	-243.2380981445312	2170.082275390625	96.0490493774414	-479.9996643066406	1443.204345703125	473.2848815917969	-273.3352661132812	1327.425048828125	292.5259704589844	-299.0874938964844	1441.099853515625	523.6178588867188	-341.3258972167969	1415.0634765625	515.3270263671875	-369.1742553710938	1420.82080078125	534.6360473632812	-309.8262329101562	2136.456787109375	32.23065948486328	-442.9617004394531
239	1.19	1939.027709960938	1399.583129882812	-568.6499633789062	2049.2021484375	1404.496704101562	-297.0656127929688	1974.802856445312	956.6632690429688	-533.8773193359375	2022.34619140625	955.7821655273438	-261.7593078613281	2024.794067382812	910.3784790039062	-508.1033020019531	2135.408447265625	59.16950225830078	-417.2142944335938	2044.224609375	911.746337890625	-279.2364807128906	1890.831176757812	829.3713989257812	-548.5034790039062	1892.798828125	868.3621215820312	-218.8310699462891	1861.345458984375	953.844970703125	-388.8203430175781	2066.228759765625	632.6262817382812	-551.6752319335938	2099.6904296875	260.7680053710938	-498.1621704101562	1999.545776367188	601.7064208984375	-524.7161254882812	2118.110107421875	552.5823364257812	-522.1176147460938	1364.835083007812	374.442626953125	-246.25537109375	2084.912353515625	357.64453125	-515.47265625	2047.72802734375	518.6651000976562	-506.2329406738281	1962.250732421875	606.1426391601562	-222.6483764648438	2381.849853515625	115.6933059692383	-464.5858459472656	1889.000244140625	629.7503662109375	-207.9813537597656	1935.402954101562	509.6348266601562	-237.6831970214844	1855.8212890625	534.1520385742188	-221.1356353759766	2123.156494140625	480.0791015625	-515.2421264648438	1850.677001953125	464.6622314453125	-223.3765869140625	2165.3115234375	371.1519165039062	-515.9164428710938	2180.102783203125	271.1775817871094	-501.8167724609375	1741.0302734375	422.2834777832031	-225.5367736816406	2318.2373046875	73.5631332397461	-514.5706787109375	1734.871215820312	508.5592956542969	-223.4588317871094	2155.794677734375	38.66120529174805	-390.1396484375	1638.117919921875	423.6112976074219	-245.2381591796875	1640.407104492188	503.70361328125	-243.1839599609375	2179.26904296875	90.25533294677734	-478.6734924316406	1473.528930664062	475.8345947265625	-272.9892272949219	1355.337280273438	296.2752380371094	-299.15380859375	1472.517333984375	525.4540405273438	-341.8754272460938	1446.0234375	516.74072265625	-369.4047241210938	1452.298217773438	536.8356323242188	-310.7179565429688	2141.2578125	31.4586181640625	-442.9427795410156
240	1.195	1960.8427734375	1393.202880859375	-570.8771362304688	2068.1787109375	1399.329833984375	-297.6180419921875	1995.011840820312	951.6737060546876	-534.6226806640625	2043.380249023438	950.3739624023438	-262.2074890136719	2044.982788085938	906.4328002929688	-509.9043273925781	2141.682861328125	58.50662231445312	-416.4742431640625	2064.92626953125	906.3802490234376	-280.2569885253906	1909.268432617188	823.930908203125	-547.5503540039062	1914.737548828125	862.3812255859375	-217.6938934326172	1881.334106445312	948.7965087890624	-388.3146667480469	2087.115234375	629.7333374023438	-550.4367065429688	2114.2421875	256.8673095703125	-496.7613220214844	2020.310546875	597.4089965820312	-526.5115966796875	2139.444580078125	549.3803100585938	-522.6398315429688	1394.471557617188	377.5022888183594	-246.3816680908203	2101.74462890625	354.5619201660156	-515.211669921875	2069.240234375	514.6681518554688	-507.3487854003906	1987.940063476562	600.6886596679688	-222.7417144775391	2391.761962890625	98.24620819091795	-461.9561462402344	1914.363159179688	622.5038452148438	-207.5147705078125	1963.248413085938	503.4072875976562	-237.1628570556641	1883.524658203125	526.3286743164062	-220.5068206787109	2143.56884765625	475.7433776855469	-515.8236694335938	1879.275268554688	457.4390869140625	-221.8581237792969	2182.62060546875	365.26953125	-515.5120239257812	2194.214599609375	265.067138671875	-500.405029296875	1769.902587890625	417.95458984375	-224.991943359375	2326.119873046875	61.95827484130859	-513.3554077148438	1766.052001953125	503.7737426757812	-223.2288665771484	2159.75634765625	36.75109100341797	-390.0059814453125	1667.860717773438	420.7344055175781	-244.9293060302734	1671.666381835938	500.9501953125	-243.1215667724609	2187.18994140625	85.82337951660156	-478.3246765136719	1504.657958984375	476.9203186035156	-273.8699035644531	1383.664916992188	299.20263671875	-299.0636596679688	1504.023681640625	526.637451171875	-342.9503479003906	1477.863525390625	518.850341796875	-370.8560180664062	1483.6474609375	538.442626953125	-311.6138916015625	2145.04541015625	31.04866027832031	-442.8163146972656
